<svg id="svg" version="1.1" xmlns="http://www.w3.org/2000/svg" xmlns:xlink="http://www.w3.org/1999/xlink" width="400" height="400" viewBox="0, 0, 400,400"><g id="svgg"><path id="path0" d="M137.800 0.274 C 136.480 0.368,135.229 0.614,135.020 0.822 C 134.811 1.030,133.967 1.200,133.144 1.200 C 132.321 1.200,131.536 1.380,131.400 1.600 C 131.264 1.820,130.544 2.000,129.800 2.000 C 129.056 2.000,128.336 2.180,128.200 2.400 C 128.064 2.620,127.423 2.800,126.776 2.800 C 126.129 2.800,125.600 2.980,125.600 3.200 C 125.600 3.420,125.060 3.600,124.400 3.600 C 123.740 3.600,123.200 3.780,123.200 4.000 C 123.200 4.220,122.660 4.400,122.000 4.400 C 121.340 4.400,120.800 4.580,120.800 4.800 C 120.800 5.020,120.440 5.200,120.000 5.200 C 119.560 5.200,119.200 5.380,119.200 5.600 C 119.200 5.820,118.660 6.000,118.000 6.000 C 117.340 6.000,116.800 6.180,116.800 6.400 C 116.800 6.620,116.440 6.800,116.000 6.800 C 115.560 6.800,115.200 6.980,115.200 7.200 C 115.200 7.420,114.840 7.600,114.400 7.600 C 113.960 7.600,113.600 7.780,113.600 8.000 C 113.600 8.220,113.240 8.400,112.800 8.400 C 112.360 8.400,112.000 8.591,112.000 8.824 C 112.000 9.057,111.809 9.129,111.575 8.984 C 111.341 8.840,110.846 8.996,110.475 9.332 C 110.104 9.668,109.669 9.972,109.509 10.007 C 108.149 10.304,107.600 10.545,107.600 10.847 C 107.600 11.041,107.364 11.200,107.075 11.200 C 106.787 11.200,106.164 11.560,105.692 12.000 C 105.220 12.440,104.596 12.800,104.305 12.800 C 104.014 12.800,103.517 13.160,103.200 13.600 C 102.883 14.040,102.343 14.400,102.000 14.400 C 101.657 14.400,101.117 14.760,100.800 15.200 C 100.483 15.640,100.020 16.000,99.771 16.000 C 99.522 16.000,98.754 16.540,98.063 17.200 C 97.372 17.860,96.626 18.400,96.404 18.400 C 96.182 18.400,96.000 18.580,96.000 18.800 C 96.000 19.020,95.812 19.200,95.582 19.200 C 94.999 19.200,93.195 21.061,93.491 21.358 C 93.624 21.491,93.403 21.600,93.000 21.600 C 92.597 21.600,92.379 21.712,92.515 21.849 C 92.767 22.100,90.406 24.508,88.848 25.588 C 88.382 25.912,88.000 26.407,88.000 26.688 C 88.000 26.970,87.819 27.200,87.597 27.200 C 87.075 27.200,82.400 31.944,82.400 32.474 C 82.400 32.697,81.860 33.383,81.200 34.000 C 80.540 34.617,80.000 35.369,80.000 35.672 C 80.000 35.975,79.640 36.483,79.200 36.800 C 78.760 37.117,78.400 37.573,78.400 37.813 C 78.400 38.053,78.024 38.652,77.565 39.145 C 77.106 39.638,76.830 40.302,76.953 40.621 C 77.091 40.981,76.927 41.200,76.521 41.200 C 76.161 41.200,75.976 41.309,76.109 41.443 C 76.243 41.576,76.003 42.060,75.576 42.518 C 75.149 42.976,74.800 43.677,74.800 44.075 C 74.800 44.474,74.620 44.800,74.400 44.800 C 74.180 44.800,74.000 45.145,74.000 45.567 C 74.000 45.988,73.865 46.393,73.700 46.467 C 73.268 46.659,71.600 49.972,71.600 50.638 C 71.600 50.947,71.420 51.200,71.200 51.200 C 70.980 51.200,70.800 51.560,70.800 52.000 C 70.800 52.440,70.620 52.800,70.400 52.800 C 70.180 52.800,70.000 53.149,70.000 53.576 C 70.000 54.003,69.820 54.464,69.600 54.600 C 69.380 54.736,69.200 55.287,69.200 55.824 C 69.200 56.361,69.020 56.800,68.800 56.800 C 68.580 56.800,68.400 57.239,68.400 57.776 C 68.400 58.313,68.220 58.864,68.000 59.000 C 67.780 59.136,67.600 59.687,67.600 60.224 C 67.600 60.761,67.420 61.200,67.200 61.200 C 66.980 61.200,66.800 61.729,66.800 62.376 C 66.800 63.023,66.620 63.664,66.400 63.800 C 66.180 63.936,66.000 64.656,66.000 65.400 C 66.000 66.144,65.820 66.864,65.600 67.000 C 65.380 67.136,65.200 68.047,65.200 69.024 C 65.200 70.001,65.020 70.800,64.800 70.800 C 64.578 70.800,64.400 71.867,64.400 73.200 C 64.400 74.520,64.230 75.600,64.023 75.600 C 63.676 75.600,63.202 82.764,63.202 88.000 C 63.202 93.236,63.676 100.400,64.023 100.400 C 64.230 100.400,64.400 101.480,64.400 102.800 C 64.400 104.133,64.578 105.200,64.800 105.200 C 65.020 105.200,65.200 106.010,65.200 107.000 C 65.200 107.990,65.380 108.800,65.600 108.800 C 65.820 108.800,66.000 109.520,66.000 110.400 C 66.000 111.280,66.180 112.000,66.400 112.000 C 66.620 112.000,66.800 112.529,66.800 113.176 C 66.800 113.823,66.980 114.464,67.200 114.600 C 67.420 114.736,67.600 115.276,67.600 115.800 C 67.600 116.324,67.780 116.864,68.000 117.000 C 68.220 117.136,68.400 117.687,68.400 118.224 C 68.400 118.761,68.580 119.200,68.800 119.200 C 69.020 119.200,69.200 119.639,69.200 120.176 C 69.200 120.713,69.380 121.264,69.600 121.400 C 69.820 121.536,70.000 121.997,70.000 122.424 C 70.000 122.851,70.180 123.200,70.400 123.200 C 70.620 123.200,70.800 123.549,70.800 123.976 C 70.800 124.403,70.980 124.864,71.200 125.000 C 71.420 125.136,71.600 125.597,71.600 126.024 C 71.600 126.451,71.780 126.800,72.000 126.800 C 72.220 126.800,72.400 127.160,72.400 127.600 C 72.400 128.040,72.580 128.400,72.800 128.400 C 73.020 128.400,73.200 128.760,73.200 129.200 C 73.200 129.640,73.335 130.003,73.500 130.006 C 73.665 130.010,74.240 130.910,74.779 132.006 C 75.317 133.103,75.913 134.000,76.102 134.000 C 76.292 134.000,76.349 134.160,76.228 134.355 C 76.107 134.550,76.275 134.930,76.600 135.200 C 76.925 135.470,77.093 135.850,76.972 136.045 C 76.851 136.240,76.943 136.400,77.176 136.400 C 77.409 136.400,77.603 136.625,77.607 136.900 C 77.615 137.410,79.084 139.403,80.700 141.094 C 81.195 141.612,81.600 142.190,81.600 142.378 C 81.600 142.565,82.500 143.638,83.600 144.761 C 84.700 145.885,85.600 146.981,85.600 147.196 C 85.600 147.837,92.450 154.400,93.119 154.400 C 93.457 154.400,93.624 154.509,93.491 154.642 C 93.222 154.912,96.346 157.732,97.721 158.460 C 98.205 158.716,98.891 159.257,99.247 159.663 C 99.603 160.068,100.148 160.400,100.459 160.400 C 100.769 160.400,101.283 160.760,101.600 161.200 C 101.917 161.640,102.457 162.000,102.800 162.000 C 103.143 162.000,103.683 162.360,104.000 162.800 C 104.317 163.240,104.897 163.600,105.288 163.600 C 105.680 163.600,106.000 163.780,106.000 164.000 C 106.000 164.220,106.320 164.400,106.712 164.400 C 107.103 164.400,107.683 164.760,108.000 165.200 C 108.317 165.640,108.897 166.000,109.288 166.000 C 109.680 166.000,110.000 166.146,110.000 166.325 C 110.000 166.504,110.630 166.898,111.400 167.200 C 112.170 167.502,112.800 167.896,112.800 168.075 C 112.800 168.254,113.072 168.400,113.405 168.400 C 113.738 168.400,114.368 168.580,114.805 168.800 C 115.242 169.020,115.958 169.380,116.395 169.600 C 116.832 169.820,117.462 170.000,117.795 170.000 C 118.128 170.000,118.400 170.147,118.400 170.328 C 118.400 170.508,119.311 170.904,120.425 171.207 C 121.539 171.510,122.540 171.903,122.649 172.079 C 122.758 172.256,123.276 172.400,123.800 172.400 C 124.324 172.400,124.864 172.580,125.000 172.800 C 125.136 173.020,125.766 173.200,126.400 173.200 C 127.034 173.200,127.664 173.380,127.800 173.600 C 127.936 173.820,128.498 174.000,129.050 174.000 C 129.601 174.000,130.377 174.174,130.774 174.386 C 131.171 174.599,132.960 174.895,134.748 175.044 C 136.537 175.193,138.000 175.469,138.000 175.658 C 138.000 175.846,139.710 176.000,141.800 176.000 C 144.067 176.000,145.600 176.161,145.600 176.400 C 145.600 176.649,147.933 176.800,151.800 176.800 C 155.667 176.800,158.000 176.649,158.000 176.400 C 158.000 176.160,159.600 176.000,162.000 176.000 C 164.200 176.000,166.000 175.847,166.000 175.659 C 166.000 175.472,167.395 175.207,169.100 175.071 C 170.805 174.936,172.740 174.650,173.400 174.437 C 174.060 174.224,175.410 173.841,176.400 173.586 C 177.390 173.331,178.513 172.960,178.895 172.761 C 179.277 172.562,180.042 172.400,180.595 172.400 C 181.148 172.400,181.600 172.220,181.600 172.000 C 181.600 171.780,182.039 171.600,182.576 171.600 C 183.113 171.600,183.664 171.420,183.800 171.200 C 183.936 170.980,184.397 170.800,184.824 170.800 C 185.251 170.800,185.600 170.620,185.600 170.400 C 185.600 170.180,185.935 170.000,186.344 170.000 C 187.146 170.000,192.113 167.595,192.333 167.100 C 192.407 166.935,192.812 166.800,193.233 166.800 C 193.655 166.800,194.000 166.620,194.000 166.400 C 194.000 166.180,194.360 166.000,194.800 166.000 C 195.240 166.000,195.600 165.820,195.600 165.600 C 195.600 165.380,195.836 165.200,196.125 165.200 C 196.413 165.200,197.036 164.840,197.508 164.400 C 197.980 163.960,198.604 163.600,198.895 163.600 C 199.186 163.600,199.683 163.240,200.000 162.800 C 200.317 162.360,200.857 162.000,201.200 162.000 C 201.543 162.000,202.083 161.640,202.400 161.200 C 202.717 160.760,203.215 160.400,203.506 160.400 C 203.798 160.400,204.486 159.950,205.036 159.400 C 205.586 158.850,206.195 158.400,206.390 158.400 C 206.584 158.400,207.588 157.590,208.622 156.600 C 209.655 155.610,210.639 154.800,210.810 154.800 C 211.273 154.800,218.800 147.282,218.800 146.820 C 218.800 146.600,219.610 145.611,220.600 144.621 C 221.590 143.631,222.400 142.546,222.400 142.211 C 222.400 141.875,222.577 141.600,222.794 141.600 C 223.011 141.600,223.686 140.835,224.294 139.900 C 224.902 138.965,225.535 138.140,225.700 138.067 C 225.865 137.993,226.000 137.628,226.000 137.255 C 226.000 136.882,226.360 136.317,226.800 136.000 C 227.240 135.683,227.600 135.103,227.600 134.712 C 227.600 134.320,227.780 134.000,228.000 134.000 C 228.220 134.000,228.400 133.764,228.400 133.475 C 228.400 133.187,228.760 132.564,229.200 132.092 C 229.640 131.620,230.000 130.956,230.000 130.617 C 230.000 130.278,230.180 130.000,230.400 130.000 C 230.620 130.000,230.800 129.640,230.800 129.200 C 230.800 128.760,230.980 128.400,231.200 128.400 C 231.420 128.400,231.600 128.040,231.600 127.600 C 231.600 127.160,231.780 126.800,232.000 126.800 C 232.220 126.800,232.400 126.440,232.400 126.000 C 232.400 125.560,232.580 125.200,232.800 125.200 C 233.020 125.200,233.200 124.840,233.200 124.400 C 233.200 123.960,233.380 123.600,233.600 123.600 C 233.820 123.600,234.000 123.150,234.000 122.600 C 234.000 122.050,234.180 121.600,234.400 121.600 C 234.620 121.600,234.800 121.238,234.800 120.795 C 234.800 120.352,234.980 119.632,235.200 119.195 C 235.420 118.758,235.780 118.042,236.000 117.605 C 236.220 117.168,236.400 116.459,236.400 116.029 C 236.400 115.599,236.580 115.136,236.800 115.000 C 237.020 114.864,237.200 114.133,237.200 113.376 C 237.200 112.619,237.360 112.000,237.556 112.000 C 237.752 112.000,238.014 111.415,238.137 110.700 C 238.261 109.985,238.473 108.770,238.608 108.000 C 238.744 107.230,239.014 106.240,239.208 105.800 C 239.402 105.360,239.664 104.010,239.790 102.800 C 240.725 93.819,240.881 91.722,240.893 88.000 C 240.906 83.714,240.375 77.461,239.602 72.800 C 239.365 71.370,239.069 69.435,238.945 68.500 C 238.821 67.565,238.558 66.800,238.360 66.800 C 238.162 66.800,238.000 66.181,238.000 65.424 C 238.000 64.667,237.820 63.936,237.600 63.800 C 237.380 63.664,237.200 63.034,237.200 62.400 C 237.200 61.766,237.020 61.136,236.800 61.000 C 236.580 60.864,236.400 60.324,236.400 59.800 C 236.400 59.276,236.220 58.736,236.000 58.600 C 235.780 58.464,235.600 58.003,235.600 57.576 C 235.600 57.149,235.420 56.800,235.200 56.800 C 234.980 56.800,234.800 56.260,234.800 55.600 C 234.800 54.940,234.620 54.400,234.400 54.400 C 234.180 54.400,234.000 54.040,234.000 53.600 C 234.000 53.160,233.820 52.800,233.600 52.800 C 233.380 52.800,233.200 52.528,233.200 52.195 C 233.200 51.862,233.036 51.277,232.835 50.895 C 232.634 50.513,231.997 49.210,231.419 48.000 C 229.801 44.612,228.936 43.197,228.656 43.477 C 228.515 43.618,228.400 43.343,228.400 42.867 C 228.400 42.390,228.220 42.000,228.000 42.000 C 227.780 42.000,227.600 41.764,227.600 41.475 C 227.600 41.187,227.240 40.564,226.800 40.092 C 226.360 39.620,226.000 39.033,226.000 38.788 C 226.000 38.543,225.775 38.092,225.500 37.785 C 224.339 36.491,224.000 36.014,224.000 35.676 C 224.000 35.480,223.460 34.754,222.800 34.063 C 222.140 33.372,221.600 32.642,221.600 32.440 C 221.600 32.238,220.385 30.807,218.900 29.261 C 217.415 27.714,215.750 25.935,215.200 25.307 C 214.650 24.679,213.570 23.728,212.800 23.193 C 212.030 22.659,210.557 21.362,209.526 20.311 C 208.495 19.260,207.549 18.400,207.422 18.400 C 207.296 18.400,206.628 17.860,205.937 17.200 C 205.246 16.540,204.504 16.000,204.288 16.000 C 204.071 16.000,203.603 15.684,203.247 15.297 C 202.891 14.911,202.105 14.340,201.500 14.030 C 200.895 13.719,200.400 13.315,200.400 13.132 C 200.400 12.950,200.122 12.800,199.783 12.800 C 199.444 12.800,198.780 12.440,198.308 12.000 C 197.836 11.560,197.213 11.200,196.925 11.200 C 196.636 11.200,196.400 11.020,196.400 10.800 C 196.400 10.580,196.040 10.400,195.600 10.400 C 195.160 10.400,194.800 10.209,194.800 9.976 C 194.800 9.743,194.640 9.651,194.445 9.772 C 194.250 9.893,193.861 9.715,193.581 9.377 C 193.301 9.040,192.831 8.856,192.536 8.969 C 192.241 9.082,192.000 9.001,192.000 8.787 C 192.000 8.574,191.730 8.400,191.400 8.400 C 191.070 8.400,190.800 8.220,190.800 8.000 C 190.800 7.780,190.350 7.600,189.800 7.600 C 189.250 7.600,188.800 7.420,188.800 7.200 C 188.800 6.980,188.440 6.800,188.000 6.800 C 187.560 6.800,187.200 6.620,187.200 6.400 C 187.200 6.180,186.851 6.000,186.424 6.000 C 185.997 6.000,185.536 5.820,185.400 5.600 C 185.264 5.380,184.713 5.200,184.176 5.200 C 183.639 5.200,183.200 5.020,183.200 4.800 C 183.200 4.580,182.660 4.400,182.000 4.400 C 181.340 4.400,180.800 4.220,180.800 4.000 C 180.800 3.780,180.260 3.600,179.600 3.600 C 178.940 3.600,178.400 3.420,178.400 3.200 C 178.400 2.980,177.860 2.800,177.200 2.800 C 176.540 2.800,176.000 2.620,176.000 2.400 C 176.000 2.180,175.280 2.000,174.400 2.000 C 173.520 2.000,172.800 1.820,172.800 1.600 C 172.800 1.380,172.026 1.200,171.080 1.200 C 170.134 1.200,169.141 0.981,168.872 0.712 C 168.385 0.225,143.477 -0.126,137.800 0.274 M324.800 111.600 C 324.800 111.820,324.525 112.000,324.189 112.000 C 323.158 112.000,320.000 115.460,320.000 116.589 C 320.000 117.145,319.820 117.600,319.600 117.600 C 319.337 117.600,319.200 127.538,319.200 146.614 L 319.200 175.628 290.288 175.584 C 261.298 175.540,259.200 175.612,259.200 176.643 C 259.200 176.950,259.039 177.200,258.842 177.200 C 258.005 177.200,256.000 179.570,256.000 180.560 C 256.000 181.132,255.820 181.600,255.600 181.600 C 255.378 181.600,255.200 182.667,255.200 184.000 C 255.200 185.333,255.378 186.400,255.600 186.400 C 255.820 186.400,256.000 186.864,256.000 187.431 C 256.000 188.546,258.808 191.600,259.833 191.600 C 260.145 191.600,260.400 191.780,260.400 192.000 C 260.400 192.263,270.467 192.400,289.800 192.400 L 319.200 192.400 319.200 221.400 C 319.200 240.467,319.337 250.400,319.600 250.400 C 319.820 250.400,320.000 250.855,320.000 251.411 C 320.000 252.540,323.158 256.000,324.189 256.000 C 324.525 256.000,324.800 256.180,324.800 256.400 C 324.800 257.015,330.116 256.878,331.685 256.222 C 333.403 255.504,335.600 253.494,335.600 252.640 C 335.600 252.288,335.780 252.000,336.000 252.000 C 336.220 252.000,336.400 251.280,336.400 250.400 C 336.400 249.520,336.580 248.800,336.800 248.800 C 337.063 248.800,337.200 239.133,337.200 220.600 L 337.200 192.400 366.400 192.400 C 385.600 192.400,395.600 192.263,395.600 192.000 C 395.600 191.780,395.941 191.600,396.358 191.600 C 396.774 191.600,397.719 191.036,398.458 190.346 L 399.800 189.092 399.800 184.028 C 399.800 179.086,399.774 178.938,398.742 177.906 C 398.161 177.324,397.576 176.958,397.442 177.091 C 397.309 177.224,397.200 177.152,397.200 176.931 C 397.200 175.625,395.253 175.541,366.117 175.584 L 337.200 175.628 337.200 147.414 C 337.200 128.871,337.063 119.200,336.800 119.200 C 336.580 119.200,336.400 118.480,336.400 117.600 C 336.400 116.720,336.220 116.000,336.000 116.000 C 335.780 116.000,335.600 115.712,335.600 115.360 C 335.600 114.506,333.403 112.496,331.685 111.778 C 330.116 111.122,324.800 110.985,324.800 111.600 M131.600 207.953 C 131.600 208.148,129.755 208.421,127.500 208.561 C 125.245 208.701,122.554 208.872,121.521 208.941 C 120.487 209.011,119.407 209.258,119.121 209.491 C 118.834 209.724,117.926 209.859,117.103 209.791 C 116.280 209.723,115.504 209.832,115.379 210.033 C 115.255 210.235,114.454 210.400,113.600 210.400 C 112.746 210.400,111.936 210.580,111.800 210.800 C 111.664 211.020,110.843 211.200,109.976 211.200 C 109.109 211.200,108.400 211.360,108.400 211.556 C 108.400 211.752,107.770 212.022,107.000 212.156 C 106.230 212.290,104.970 212.510,104.200 212.644 C 103.430 212.778,102.800 213.048,102.800 213.244 C 102.800 213.440,102.260 213.600,101.600 213.600 C 100.940 213.600,100.400 213.780,100.400 214.000 C 100.400 214.220,99.860 214.400,99.200 214.400 C 98.540 214.400,98.000 214.580,98.000 214.800 C 98.000 215.020,97.460 215.200,96.800 215.200 C 96.140 215.200,95.600 215.380,95.600 215.600 C 95.600 215.820,95.238 216.000,94.795 216.000 C 94.352 216.000,93.587 216.208,93.095 216.462 C 91.218 217.433,90.793 217.600,90.205 217.600 C 89.872 217.600,89.600 217.780,89.600 218.000 C 89.600 218.220,89.161 218.400,88.624 218.400 C 88.087 218.400,87.536 218.580,87.400 218.800 C 87.264 219.020,86.803 219.200,86.376 219.200 C 85.949 219.200,85.600 219.380,85.600 219.600 C 85.600 219.820,85.240 220.000,84.800 220.000 C 84.360 220.000,84.000 220.180,84.000 220.400 C 84.000 220.620,83.640 220.800,83.200 220.800 C 82.760 220.800,82.400 220.980,82.400 221.200 C 82.400 221.420,82.040 221.600,81.600 221.600 C 81.160 221.600,80.800 221.780,80.800 222.000 C 80.800 222.220,80.440 222.400,80.000 222.400 C 79.560 222.400,79.200 222.580,79.200 222.800 C 79.200 223.020,78.840 223.200,78.400 223.200 C 77.960 223.200,77.600 223.380,77.600 223.600 C 77.600 223.820,77.240 224.000,76.800 224.000 C 76.360 224.000,76.000 224.144,76.000 224.320 C 76.000 224.495,75.370 224.867,74.600 225.146 C 73.830 225.424,73.200 225.831,73.200 226.049 C 73.200 226.268,73.040 226.349,72.845 226.228 C 72.650 226.107,72.270 226.275,72.000 226.600 C 71.730 226.925,71.350 227.093,71.155 226.972 C 70.960 226.851,70.800 226.943,70.800 227.176 C 70.800 227.409,70.440 227.600,70.000 227.600 C 69.560 227.600,69.200 227.758,69.200 227.951 C 69.200 228.145,68.660 228.527,68.000 228.800 C 67.340 229.073,66.800 229.455,66.800 229.649 C 66.800 229.842,66.564 230.000,66.275 230.000 C 65.987 230.000,65.364 230.360,64.892 230.800 C 64.420 231.240,63.796 231.600,63.505 231.600 C 63.214 231.600,62.717 231.960,62.400 232.400 C 62.083 232.840,61.670 233.200,61.483 233.200 C 61.296 233.200,60.906 233.425,60.616 233.700 C 59.600 234.665,58.389 235.600,58.156 235.600 C 58.027 235.600,57.417 236.140,56.800 236.800 C 56.183 237.460,55.481 238.000,55.240 238.000 C 54.998 238.000,54.059 238.720,53.152 239.600 C 52.245 240.480,51.320 241.200,51.095 241.200 C 50.870 241.200,50.172 241.738,49.543 242.396 C 48.914 243.054,48.400 243.506,48.400 243.399 C 48.400 243.293,46.948 244.645,45.173 246.403 C 43.398 248.161,41.816 249.600,41.659 249.600 C 41.501 249.600,41.043 250.159,40.639 250.841 C 40.236 251.524,38.397 253.591,36.553 255.436 C 34.709 257.280,33.200 258.881,33.200 258.994 C 33.200 259.107,32.480 259.941,31.600 260.848 C 30.720 261.755,30.000 262.673,30.000 262.888 C 30.000 263.103,29.470 263.774,28.823 264.379 C 28.176 264.983,27.526 265.956,27.380 266.539 C 27.233 267.123,26.890 267.600,26.617 267.600 C 26.345 267.600,25.797 268.320,25.400 269.200 C 25.003 270.080,24.526 270.800,24.339 270.800 C 24.153 270.800,24.000 271.120,24.000 271.512 C 24.000 271.903,23.640 272.483,23.200 272.800 C 22.760 273.117,22.400 273.657,22.400 274.000 C 22.400 274.343,22.040 274.883,21.600 275.200 C 21.160 275.517,20.800 276.127,20.800 276.555 C 20.800 276.983,20.685 277.218,20.544 277.077 C 20.287 276.821,18.984 278.789,18.542 280.100 C 18.413 280.485,18.148 280.800,17.953 280.800 C 17.759 280.800,17.600 281.160,17.600 281.600 C 17.600 282.040,17.420 282.400,17.200 282.400 C 16.980 282.400,16.800 282.745,16.800 283.167 C 16.800 283.588,16.665 283.993,16.500 284.067 C 16.045 284.269,12.800 290.640,12.800 291.330 C 12.800 291.662,12.665 291.993,12.500 292.067 C 12.001 292.288,10.400 295.622,10.400 296.438 C 10.400 296.857,10.236 297.200,10.035 297.200 C 9.835 297.200,9.716 297.511,9.772 297.892 C 9.828 298.272,9.622 298.835,9.314 299.143 C 9.006 299.451,8.846 299.944,8.960 300.239 C 9.073 300.533,8.993 300.881,8.783 301.011 C 8.572 301.141,8.400 301.597,8.400 302.024 C 8.400 302.451,8.220 302.800,8.000 302.800 C 7.780 302.800,7.600 303.340,7.600 304.000 C 7.600 304.660,7.420 305.200,7.200 305.200 C 6.980 305.200,6.800 305.740,6.800 306.400 C 6.800 307.060,6.620 307.600,6.400 307.600 C 6.180 307.600,6.000 308.140,6.000 308.800 C 6.000 309.460,5.820 310.000,5.600 310.000 C 5.380 310.000,5.200 310.630,5.200 311.400 C 5.200 312.170,5.020 312.800,4.800 312.800 C 4.580 312.800,4.400 313.329,4.400 313.976 C 4.400 314.623,4.220 315.264,4.000 315.400 C 3.780 315.536,3.600 316.346,3.600 317.200 C 3.600 318.054,3.420 318.864,3.200 319.000 C 2.980 319.136,2.800 319.957,2.800 320.824 C 2.800 321.691,2.620 322.400,2.400 322.400 C 2.180 322.400,2.000 323.300,2.000 324.400 C 2.000 325.500,1.820 326.400,1.600 326.400 C 1.380 326.400,1.200 327.354,1.200 328.520 C 1.200 329.686,0.975 330.865,0.700 331.140 C -0.028 331.867,-0.028 372.131,0.700 372.859 C 0.975 373.135,1.200 373.774,1.200 374.280 C 1.200 374.786,1.380 375.200,1.600 375.200 C 1.820 375.200,2.000 375.740,2.000 376.400 C 2.000 377.060,2.180 377.600,2.400 377.600 C 2.620 377.600,2.800 377.960,2.800 378.400 C 2.800 378.840,2.980 379.200,3.200 379.200 C 3.420 379.200,3.600 379.520,3.600 379.912 C 3.600 380.303,3.960 380.883,4.400 381.200 C 4.840 381.517,5.200 382.097,5.200 382.488 C 5.200 382.880,5.380 383.200,5.600 383.200 C 5.820 383.200,6.000 383.470,6.000 383.800 C 6.000 384.130,6.180 384.400,6.400 384.400 C 6.620 384.400,6.800 384.574,6.800 384.787 C 6.800 385.773,14.227 393.200,15.213 393.200 C 15.426 393.200,15.600 393.380,15.600 393.600 C 15.600 393.820,15.870 394.000,16.200 394.000 C 16.530 394.000,16.800 394.180,16.800 394.400 C 16.800 394.620,17.120 394.800,17.512 394.800 C 17.903 394.800,18.483 395.160,18.800 395.600 C 19.117 396.040,19.697 396.400,20.088 396.400 C 20.480 396.400,20.800 396.580,20.800 396.800 C 20.800 397.020,21.160 397.200,21.600 397.200 C 22.040 397.200,22.400 397.380,22.400 397.600 C 22.400 397.820,22.940 398.000,23.600 398.000 C 24.260 398.000,24.800 398.180,24.800 398.400 C 24.800 398.620,25.214 398.800,25.720 398.800 C 26.226 398.800,26.865 399.025,27.140 399.300 C 27.875 400.035,276.455 400.035,276.700 399.300 C 276.792 399.025,277.392 398.800,278.033 398.800 C 278.675 398.800,279.200 398.620,279.200 398.400 C 279.200 398.180,279.740 398.000,280.400 398.000 C 281.060 398.000,281.600 397.820,281.600 397.600 C 281.600 397.380,281.960 397.200,282.400 397.200 C 282.840 397.200,283.200 397.020,283.200 396.800 C 283.200 396.580,283.560 396.400,284.000 396.400 C 284.440 396.400,284.800 396.220,284.800 396.000 C 284.800 395.780,285.070 395.600,285.400 395.600 C 285.730 395.600,286.000 395.420,286.000 395.200 C 286.000 394.980,286.270 394.800,286.600 394.800 C 286.930 394.800,287.200 394.620,287.200 394.400 C 287.200 394.180,287.470 394.000,287.800 394.000 C 288.130 394.000,288.400 393.820,288.400 393.600 C 288.400 393.380,288.577 393.200,288.793 393.200 C 289.735 393.200,298.000 384.920,298.000 383.977 C 298.000 383.751,298.360 383.180,298.800 382.708 C 299.240 382.236,299.600 381.613,299.600 381.325 C 299.600 381.036,299.780 380.800,300.000 380.800 C 300.220 380.800,300.400 380.440,300.400 380.000 C 300.400 379.560,300.580 379.200,300.800 379.200 C 301.020 379.200,301.200 378.840,301.200 378.400 C 301.200 377.960,301.380 377.600,301.600 377.600 C 301.820 377.600,302.000 377.060,302.000 376.400 C 302.000 375.740,302.180 375.200,302.400 375.200 C 302.620 375.200,302.800 374.761,302.800 374.224 C 302.800 373.687,302.980 373.136,303.200 373.000 C 303.420 372.864,303.600 372.234,303.600 371.600 C 303.600 370.966,303.780 370.336,304.000 370.200 C 304.220 370.064,304.400 368.559,304.400 366.856 C 304.400 365.153,304.588 363.572,304.819 363.341 C 305.421 362.739,304.621 337.263,303.979 336.620 C 303.771 336.411,303.600 335.027,303.600 333.544 C 303.600 332.061,303.420 330.736,303.200 330.600 C 302.980 330.464,302.800 329.474,302.800 328.400 C 302.800 327.326,302.620 326.336,302.400 326.200 C 302.180 326.064,302.000 325.074,302.000 324.000 C 302.000 322.926,301.820 321.936,301.600 321.800 C 301.380 321.664,301.200 320.843,301.200 319.976 C 301.200 319.109,301.020 318.400,300.800 318.400 C 300.580 318.400,300.400 317.680,300.400 316.800 C 300.400 315.920,300.220 315.200,300.000 315.200 C 299.780 315.200,299.600 314.570,299.600 313.800 C 299.600 313.030,299.420 312.400,299.200 312.400 C 298.980 312.400,298.800 311.871,298.800 311.224 C 298.800 310.577,298.620 309.936,298.400 309.800 C 298.180 309.664,298.000 309.113,298.000 308.576 C 298.000 308.039,297.820 307.600,297.600 307.600 C 297.380 307.600,297.200 307.060,297.200 306.400 C 297.200 305.740,297.020 305.200,296.800 305.200 C 296.580 305.200,296.400 304.660,296.400 304.000 C 296.400 303.340,296.220 302.800,296.000 302.800 C 295.780 302.800,295.600 302.260,295.600 301.600 C 295.600 300.940,295.420 300.400,295.200 300.400 C 294.980 300.400,294.800 300.040,294.800 299.600 C 294.800 299.160,294.620 298.800,294.400 298.800 C 294.180 298.800,294.000 298.260,294.000 297.600 C 294.000 296.940,293.820 296.400,293.600 296.400 C 293.380 296.400,293.200 296.040,293.200 295.600 C 293.200 295.160,293.020 294.800,292.800 294.800 C 292.580 294.800,292.400 294.429,292.400 293.976 C 292.400 293.523,292.220 293.264,292.000 293.400 C 291.771 293.541,291.600 293.189,291.600 292.578 C 291.600 291.423,287.286 282.400,286.734 282.400 C 286.550 282.400,286.400 282.040,286.400 281.600 C 286.400 281.160,286.220 280.800,286.000 280.800 C 285.780 280.800,285.600 280.440,285.600 280.000 C 285.600 279.560,285.420 279.200,285.200 279.200 C 284.980 279.200,284.800 278.930,284.800 278.600 C 284.800 278.270,284.620 278.000,284.400 278.000 C 284.180 278.000,284.000 277.719,284.000 277.376 C 284.000 277.033,283.820 276.864,283.600 277.000 C 283.380 277.136,283.200 276.959,283.200 276.607 C 283.200 276.255,282.840 275.580,282.400 275.108 C 281.960 274.636,281.600 274.013,281.600 273.725 C 281.600 273.436,281.420 273.200,281.200 273.200 C 280.980 273.200,280.800 272.928,280.800 272.596 C 280.800 272.264,280.260 271.428,279.600 270.737 C 278.940 270.046,278.400 269.278,278.400 269.029 C 278.400 268.780,278.040 268.317,277.600 268.000 C 277.160 267.683,276.800 267.169,276.800 266.859 C 276.800 266.548,276.468 266.003,276.061 265.647 C 275.655 265.291,275.070 264.531,274.761 263.958 C 274.066 262.667,271.640 259.758,269.000 257.048 C 267.900 255.919,266.370 254.187,265.600 253.199 C 263.918 251.040,261.855 248.968,258.386 245.951 C 256.964 244.714,255.013 242.959,254.051 242.051 C 253.088 241.143,252.144 240.400,251.951 240.400 C 251.758 240.400,250.859 239.680,249.952 238.800 C 249.045 237.920,248.127 237.200,247.912 237.200 C 247.697 237.200,247.017 236.660,246.400 236.000 C 245.783 235.340,245.031 234.800,244.728 234.800 C 244.425 234.800,243.917 234.440,243.600 234.000 C 243.283 233.560,242.746 233.200,242.408 233.200 C 242.069 233.200,241.568 232.840,241.293 232.400 C 241.018 231.960,240.525 231.600,240.197 231.600 C 239.868 231.600,239.600 231.450,239.600 231.268 C 239.600 231.085,239.105 230.680,238.500 230.368 C 237.895 230.055,237.051 229.485,236.625 229.100 C 236.198 228.715,235.613 228.400,235.325 228.400 C 235.036 228.400,234.800 228.220,234.800 228.000 C 234.800 227.780,234.455 227.600,234.033 227.600 C 233.612 227.600,233.207 227.443,233.133 227.251 C 232.953 226.779,228.981 224.800,228.213 224.800 C 227.876 224.800,227.600 224.620,227.600 224.400 C 227.600 224.180,227.240 224.000,226.800 224.000 C 226.360 224.000,226.000 223.820,226.000 223.600 C 226.000 223.380,225.730 223.200,225.400 223.200 C 225.070 223.200,224.800 223.020,224.800 222.800 C 224.800 222.580,224.440 222.400,224.000 222.400 C 223.560 222.400,223.200 222.220,223.200 222.000 C 223.200 221.780,222.840 221.600,222.400 221.600 C 221.960 221.600,221.600 221.420,221.600 221.200 C 221.600 220.980,221.240 220.800,220.800 220.800 C 220.360 220.800,220.000 220.620,220.000 220.400 C 220.000 220.180,219.640 220.000,219.200 220.000 C 218.760 220.000,218.400 219.820,218.400 219.600 C 218.400 219.380,218.040 219.200,217.600 219.200 C 217.160 219.200,216.800 219.020,216.800 218.800 C 216.800 218.580,216.260 218.400,215.600 218.400 C 214.940 218.400,214.400 218.220,214.400 218.000 C 214.400 217.780,214.040 217.600,213.600 217.600 C 213.160 217.600,212.800 217.420,212.800 217.200 C 212.800 216.980,212.260 216.800,211.600 216.800 C 210.940 216.800,210.400 216.620,210.400 216.400 C 210.400 216.180,209.961 216.000,209.424 216.000 C 208.887 216.000,208.336 215.820,208.200 215.600 C 208.064 215.380,207.513 215.200,206.976 215.200 C 206.439 215.200,206.000 215.020,206.000 214.800 C 206.000 214.580,205.561 214.400,205.024 214.400 C 204.487 214.400,203.936 214.220,203.800 214.000 C 203.664 213.780,203.023 213.600,202.376 213.600 C 201.729 213.600,201.200 213.420,201.200 213.200 C 201.200 212.980,200.671 212.800,200.024 212.800 C 199.377 212.800,198.736 212.620,198.600 212.400 C 198.464 212.180,197.733 212.000,196.976 212.000 C 196.219 212.000,195.600 211.820,195.600 211.600 C 195.600 211.380,194.891 211.200,194.024 211.200 C 193.157 211.200,192.336 211.020,192.200 210.800 C 192.064 210.580,191.254 210.400,190.400 210.400 C 189.546 210.400,188.754 210.249,188.639 210.063 C 188.525 209.878,187.839 209.766,187.116 209.813 C 186.392 209.861,185.440 209.712,185.000 209.482 C 184.187 209.058,183.750 209.011,176.500 208.561 C 174.245 208.421,172.400 208.148,172.400 207.953 C 172.400 207.753,163.543 207.600,152.000 207.600 C 140.457 207.600,131.600 207.753,131.600 207.953 " stroke="none" fill="#4494fc" fill-rule="evenodd"></path><path id="path1" d="M277.529 175.500 C 285.300 175.561,297.900 175.561,305.529 175.500 C 313.158 175.439,306.800 175.389,291.400 175.389 C 276.000 175.389,269.758 175.439,277.529 175.500 M350.900 175.500 C 358.545 175.561,371.055 175.561,378.700 175.500 C 386.345 175.439,380.090 175.389,364.800 175.389 C 349.510 175.389,343.255 175.439,350.900 175.500 " stroke="none" fill="#4894fc" fill-rule="evenodd"></path><path id="path2" d="M277.529 175.500 C 285.300 175.561,297.900 175.561,305.529 175.500 C 313.158 175.439,306.800 175.389,291.400 175.389 C 276.000 175.389,269.758 175.439,277.529 175.500 M350.900 175.500 C 358.545 175.561,371.055 175.561,378.700 175.500 C 386.345 175.439,380.090 175.389,364.800 175.389 C 349.510 175.389,343.255 175.439,350.900 175.500 " stroke="none" fill="#4894fc" fill-rule="evenodd"></path><path id="path3" d="M277.529 175.500 C 285.300 175.561,297.900 175.561,305.529 175.500 C 313.158 175.439,306.800 175.389,291.400 175.389 C 276.000 175.389,269.758 175.439,277.529 175.500 M350.900 175.500 C 358.545 175.561,371.055 175.561,378.700 175.500 C 386.345 175.439,380.090 175.389,364.800 175.389 C 349.510 175.389,343.255 175.439,350.900 175.500 " stroke="none" fill="#4894fc" fill-rule="evenodd"></path><path id="path4" d="M277.529 175.500 C 285.300 175.561,297.900 175.561,305.529 175.500 C 313.158 175.439,306.800 175.389,291.400 175.389 C 276.000 175.389,269.758 175.439,277.529 175.500 M350.900 175.500 C 358.545 175.561,371.055 175.561,378.700 175.500 C 386.345 175.439,380.090 175.389,364.800 175.389 C 349.510 175.389,343.255 175.439,350.900 175.500 " stroke="none" fill="#4894fc" fill-rule="evenodd"></path></g></svg>